<svg preserveAspectRatio="none" width="100%" height="100%" overflow="visible" style="display: block;" viewBox="0 0 64 64" fill="none" xmlns="http://www.w3.org/2000/svg">
<g id="Ebene_1" clip-path="url(#clip0_2073_119)">
<path id="Vector" d="M47.9205 0L51.4377 0.660937C57.1784 2.28281 61.7909 6.92656 63.3674 12.6984L64.0002 16.1266V47.8766L63.3674 51.3047C61.7909 57.075 57.1799 61.7203 51.4377 63.3422L47.9205 64.0031H16.2596C7.47367 63.2484 0.661166 56.3078 0.175228 47.4453C-0.377897 37.375 0.604916 26.8062 0.175228 16.6844C0.464291 7.94062 7.57992 0.615625 16.2596 0H47.9205ZM16.358 3.7875C9.57679 4.38594 4.30492 9.86562 3.91273 16.6812C3.33148 26.7687 4.3596 37.4156 3.92054 47.5609C4.4221 54.325 9.81898 59.7437 16.5721 60.2484H47.608C54.3534 59.7453 59.7565 54.3328 60.2596 47.5609V16.4391C59.7112 9.55156 54.2737 4.14531 47.3659 3.74375C37.2455 3.15625 26.5377 4.16406 16.3596 3.7875H16.358Z" fill="var(--fill-0, white)"/>
<path id="Vector_2" d="M49.5281 32C49.5281 41.6578 41.7203 49.4875 32.0906 49.4875C22.4609 49.4875 14.6531 41.6578 14.6531 32C14.6531 22.3422 22.4609 14.5125 32.0906 14.5125C41.7203 14.5125 49.5281 22.3422 49.5281 32ZM45.7891 32C45.7891 24.4125 39.6562 18.2625 32.0906 18.2625C24.525 18.2625 18.3922 24.4125 18.3922 32C18.3922 39.5875 24.525 45.7375 32.0906 45.7375C39.6562 45.7375 45.7891 39.5875 45.7891 32Z" fill="var(--fill-0, white)"/>
<path id="Vector_3" d="M55.0984 13.4562C55.0984 16.3031 52.7969 18.6125 49.9562 18.6125C47.1156 18.6125 44.8141 16.3047 44.8141 13.4562C44.8141 10.6078 47.1156 8.3 49.9562 8.3C52.7969 8.3 55.0984 10.6078 55.0984 13.4562ZM51.3562 13.4562C51.3562 12.6828 50.7312 12.0547 49.9594 12.0547C49.1875 12.0547 48.5625 12.6828 48.5625 13.4562C48.5625 14.2297 49.1875 14.8578 49.9594 14.8578C50.7312 14.8578 51.3562 14.2297 51.3562 13.4562Z" fill="var(--fill-0, white)"/>
</g>
<defs>
<clipPath id="clip0_2073_119">
<rect width="64" height="64" fill="white"/>
</clipPath>
</defs>
</svg>
